<svg width="25" height="25" viewBox="0 0 25 25" fill="none" xmlns="http://www.w3.org/2000/svg">
<path d="M9.89209 17.5C9.89209 18.6046 8.99666 19.5 7.89209 19.5C6.78752 19.5 5.89209 18.6046 5.89209 17.5C5.89209 16.3954 6.78752 15.5 7.89209 15.5C8.99666 15.5 9.89209 16.3954 9.89209 17.5Z" stroke="white" stroke-width="1.5"/>
<path d="M19.8921 17.5C19.8921 18.6046 18.9967 19.5 17.8921 19.5C16.7875 19.5 15.8921 18.6046 15.8921 17.5C15.8921 16.3954 16.7875 15.5 17.8921 15.5C18.9967 15.5 19.8921 16.3954 19.8921 17.5Z" stroke="white" stroke-width="1.5"/>
<path d="M2.89209 10.5H18.8921M2.89209 10.5C2.89209 11.28 2.8721 13.54 2.89609 15.76C2.93206 16.48 3.05197 17.08 5.8938 17.5M2.89209 10.5C3.10793 8.76 4.04721 6.7 4.52684 5.92M9.89209 10.5V5.5M15.8822 17.5H9.88676M2.90808 5.5H13.1243C13.1243 5.5 13.6639 5.5 14.1435 5.548C15.0429 5.632 15.7983 6.04 16.5537 7.06C17.3536 8.14 17.9686 9.508 18.784 10.24C20.139 11.4564 22.717 11.08 22.8609 13.66C22.8969 14.98 22.8969 16.42 22.8369 16.66C22.7406 17.3667 22.1957 17.4821 21.5179 17.5C20.9297 17.5156 20.2206 17.4721 19.8752 17.5" stroke="white" stroke-width="1.5" stroke-linecap="round"/>
</svg>
