<svg width="25" height="25" viewBox="0 0 25 25" fill="none" xmlns="http://www.w3.org/2000/svg">
<g clip-path="url(#clip0_364_4999)">
<path d="M19.5277 20.6815H20.0179C21.1677 20.6815 22.0823 20.1576 22.9035 19.4251C24.9896 17.5641 20.0857 15.6815 18.4116 15.6815M16.4116 5.75026C16.6387 5.70522 16.8745 5.68149 17.1164 5.68149C18.9363 5.68149 20.4116 7.02464 20.4116 8.68149C20.4116 10.3383 18.9363 11.6815 17.1164 11.6815C16.8745 11.6815 16.6387 11.6578 16.4116 11.6127" stroke="white" stroke-width="1.5" stroke-linecap="round"/>
<path d="M5.39293 16.7927C4.21396 17.4245 1.12276 18.7146 3.0055 20.3289C3.92521 21.1175 4.94953 21.6815 6.23734 21.6815H13.5859C14.8737 21.6815 15.898 21.1175 16.8177 20.3289C18.7005 18.7146 15.6093 17.4245 14.4303 16.7927C11.6656 15.3111 8.15761 15.3111 5.39293 16.7927Z" stroke="white" stroke-width="1.5"/>
<path d="M13.9116 8.18149C13.9116 10.3906 12.1207 12.1815 9.91162 12.1815C7.70248 12.1815 5.91162 10.3906 5.91162 8.18149C5.91162 5.97235 7.70248 4.18149 9.91162 4.18149C12.1207 4.18149 13.9116 5.97235 13.9116 8.18149Z" stroke="white" stroke-width="1.5"/>
</g>
<defs>
<clipPath id="clip0_364_4999">
<rect width="24" height="24" fill="white" transform="translate(0.911621 0.681488)"/>
</clipPath>
</defs>
</svg>
