<svg width="25" height="25" viewBox="0 0 25 25" fill="none" xmlns="http://www.w3.org/2000/svg">
<path d="M9.50908 22.4528L9.25845 18.9439C9.1237 17.0574 10.6178 15.4528 12.5091 15.4528C14.4004 15.4528 15.8945 17.0574 15.7597 18.9439L15.5091 22.4528" stroke="black" stroke-width="1.5"/>
<path d="M2.86116 13.6663C2.50814 11.369 2.33163 10.2204 2.76594 9.20214C3.20024 8.18388 4.1638 7.48719 6.09091 6.09382L7.53076 5.05276C9.92806 3.31943 11.1267 2.45276 12.5098 2.45276C13.8928 2.45276 15.0915 3.31943 17.4888 5.05276L18.9286 6.09382C20.8558 7.48719 21.8193 8.18388 22.2536 9.20214C22.6879 10.2204 22.5114 11.369 22.1584 13.6663L21.8574 15.6252C21.3569 18.8817 21.1067 20.51 19.9388 21.4814C18.7709 22.4528 17.0634 22.4528 13.6486 22.4528H11.371C7.9561 22.4528 6.24868 22.4528 5.08077 21.4814C3.91286 20.51 3.66264 18.8817 3.1622 15.6252L2.86116 13.6663Z" stroke="black" stroke-width="1.5" stroke-linejoin="round"/>
</svg>
