<svg width="25" height="24" viewBox="0 0 25 24" fill="none" xmlns="http://www.w3.org/2000/svg">
<path d="M2.96533 12C2.96533 7.52166 2.96533 5.28249 4.35657 3.89124C5.74782 2.5 7.98699 2.5 12.4653 2.5C16.9436 2.5 19.1828 2.5 20.5741 3.89124C21.9653 5.28249 21.9653 7.52166 21.9653 12C21.9653 16.4783 21.9653 18.7175 20.5741 20.1088C19.1828 21.5 16.9436 21.5 12.4653 21.5C7.98699 21.5 5.74782 21.5 4.35657 20.1088C2.96533 18.7175 2.96533 16.4783 2.96533 12Z" stroke="white" stroke-width="1.5"/>
<path d="M12.4678 7.03857V14.0889M12.4678 14.0889C12.7939 14.0933 13.1156 13.8691 13.3529 13.5956L14.9424 11.8129M12.4678 14.0889C12.1532 14.0847 11.8346 13.8618 11.5827 13.5955L9.98397 11.8129M8.45166 17.0386H16.4516" stroke="white" stroke-width="1.5" stroke-linecap="round"/>
</svg>
