<svg width="25" height="25" viewBox="0 0 25 25" fill="none" xmlns="http://www.w3.org/2000/svg">
<path d="M19.5 6.59126H16.8M16.8 6.59126H15M16.8 6.59126V5.76367M13.5 6.59126H15M15 6.59126C15.3165 7.72304 15.9793 8.7929 16.7357 9.73313M16.7357 9.73313C17.3621 10.5117 18.0528 11.2014 18.6643 11.7637M16.7357 9.73313C17.1214 9.28091 17.6614 8.54925 17.8157 8.21822M16.7357 9.73313L15.5786 10.9361" stroke="black" stroke-width="1.5" stroke-linecap="round" stroke-linejoin="round"/>
<path d="M11 19.7637L10.1667 17.7637M10.1667 17.7637L8.5 13.7637L6.8333 17.7637M10.1667 17.7637H6.8333M6 19.7637L6.8333 17.7637" stroke="black" stroke-width="1.5" stroke-linecap="round" stroke-linejoin="round"/>
<path d="M10.5 10.7637V8.76367C10.5 5.93524 10.5 4.52103 11.3787 3.64235C12.2574 2.76367 13.6716 2.76367 16.5 2.76367C19.3284 2.76367 20.7426 2.76367 21.6213 3.64235C22.5 4.52103 22.5 5.93524 22.5 8.76367C22.5 11.5921 22.5 13.0063 21.6213 13.885C20.7426 14.7637 19.3284 14.7637 16.5 14.7637H14.5" stroke="black" stroke-width="1.5" stroke-linecap="round"/>
<path d="M14.5 16.7637C14.5 13.9353 14.5 12.5211 13.6213 11.6424C12.7426 10.7637 11.3284 10.7637 8.5 10.7637C5.6716 10.7637 4.2574 10.7637 3.3787 11.6424C2.5 12.5211 2.5 13.9353 2.5 16.7637C2.5 19.5921 2.5 21.0063 3.3787 21.885C4.2574 22.7637 5.6716 22.7637 8.5 22.7637C11.3284 22.7637 12.7426 22.7637 13.6213 21.885C14.5 21.0063 14.5 19.5921 14.5 16.7637Z" stroke="black" stroke-width="1.5"/>
<path d="M20.5 17.2637C20.5 18.6682 20.5 19.3704 20.1629 19.8748C20.017 20.0932 19.8295 20.2807 19.6111 20.4266C19.1067 20.7637 18.4045 20.7637 17 20.7637" stroke="black" stroke-width="1.5" stroke-linecap="round" stroke-linejoin="round"/>
<path d="M4.5 8.26367C4.5 6.85921 4.5 6.15698 4.8371 5.65253C4.983 5.43415 5.1705 5.24665 5.3889 5.10073C5.8933 4.76367 6.5955 4.76367 8 4.76367" stroke="black" stroke-width="1.5" stroke-linecap="round" stroke-linejoin="round"/>
</svg>
