<svg width="24" height="25" viewBox="0 0 24 25" fill="none" xmlns="http://www.w3.org/2000/svg">
<path d="M2 12.5C2 13.5519 2.18046 14.5616 2.51212 15.5M2.51212 15.5H11M2.51212 15.5C3.74763 18.9956 7.08134 21.5 11 21.5C9.45582 21.5 8.18412 17.9999 8.01831 13.5M13.0137 9.5H21.5015M21.5015 9.5C20.266 6.00442 16.9323 3.5 13.0137 3.5C14.6146 3.5 15.9226 7.262 16.0091 12M21.5015 9.5C21.7803 10.2887 21.9522 11.1278 22 12" stroke="#7B7B7B" stroke-width="1.5" stroke-linecap="round" stroke-linejoin="round"/>
<path d="M2 5.79734C2 4.69897 2 4.14979 2.18738 3.72389C2.3861 3.27223 2.72861 2.90921 3.15476 2.6986C3.55661 2.5 4.07478 2.5 5.11111 2.5H6C7.88562 2.5 8.82843 2.5 9.41421 3.12085C10 3.7417 10 4.74095 10 6.73944V8.99851C10 9.87026 10 10.3061 9.73593 10.4559C9.47186 10.6057 9.12967 10.3639 8.4453 9.88036L8.34103 9.80669C7.84086 9.45329 7.59078 9.27658 7.30735 9.18563C7.02392 9.09468 6.72336 9.09468 6.12223 9.09468H5.11111C4.07478 9.09468 3.55661 9.09468 3.15476 8.89608C2.72861 8.68547 2.3861 8.32245 2.18738 7.87079C2 7.44489 2 6.89571 2 5.79734Z" stroke="#7B7B7B" stroke-width="1.5"/>
<path d="M22 17.7973C22 16.699 22 16.1498 21.8126 15.7239C21.6139 15.2722 21.2714 14.9092 20.8452 14.6986C20.4434 14.5 19.9252 14.5 18.8889 14.5H18C16.1144 14.5 15.1716 14.5 14.5858 15.1209C14 15.7417 14 16.7409 14 18.7394V20.9985C14 21.8703 14 22.3061 14.2641 22.4559C14.5281 22.6057 14.8703 22.3639 15.5547 21.8804L15.659 21.8067C16.1591 21.4533 16.4092 21.2766 16.6926 21.1856C16.9761 21.0947 17.2766 21.0947 17.8778 21.0947H18.8889C19.9252 21.0947 20.4434 21.0947 20.8452 20.8961C21.2714 20.6855 21.6139 20.3225 21.8126 19.8708C22 19.4449 22 18.8957 22 17.7973Z" stroke="#7B7B7B" stroke-width="1.5"/>
</svg>
