<svg width="25" height="25" viewBox="0 0 25 25" fill="none" xmlns="http://www.w3.org/2000/svg">
<path d="M18.0542 18.5C19.2989 18.9244 20.0542 19.4819 20.0542 20.0925C20.0542 21.4221 16.4725 22.5 12.0542 22.5C7.63592 22.5 4.0542 21.4221 4.0542 20.0925C4.0542 19.4819 4.80947 18.9244 6.0542 18.5" stroke="white" stroke-width="1.5" stroke-linecap="round"/>
<path d="M15.0542 10C15.0542 11.6569 13.7111 13 12.0542 13C10.3973 13 9.0542 11.6569 9.0542 10C9.0542 8.34315 10.3973 7 12.0542 7C13.7111 7 15.0542 8.34315 15.0542 10Z" stroke="white" stroke-width="1.5"/>
<path d="M12.0542 2.5C16.113 2.5 19.5542 5.92803 19.5542 10.0869C19.5542 14.312 16.057 17.277 12.8267 19.2932C12.5913 19.4287 12.3251 19.5 12.0542 19.5C11.7833 19.5 11.5171 19.4287 11.2817 19.2932C8.05745 17.2573 4.5542 14.3266 4.5542 10.0869C4.5542 5.92803 7.9954 2.5 12.0542 2.5Z" stroke="white" stroke-width="1.5"/>
</svg>
