<svg xmlns="http://www.w3.org/2000/svg" viewBox="0 0 512 512"><path d="m289.7 76.1 55.3 47.8h-55.3zm106.9 340.7c-11.3 0-20.5 9.1-20.5 20.4v23H71.9V51.8h176.9v92.4c0 11.3 9.2 20.4 20.5 20.4h106.9V287c0 11.3 9.2 20.4 20.5 20.4s20.5-9.1 20.5-20.4V141.4c0-5.9-2.6-11.6-7.1-15.4L282.7 16c-3.7-3.2-8.5-5-13.4-5H51.5C40.2 11 31 20.1 31 31.4v449.2c0 11.3 9.2 20.4 20.5 20.4h345.2c11.3 0 20.5-9.1 20.5-20.4v-43.4c-.1-11.3-9.3-20.4-20.6-20.4"/><path d="M305.7 198.9h-162c-11.3 0-20.5 9.1-20.5 20.4s9.2 20.4 20.5 20.4h162.1c11.3 0 20.5-9.1 20.5-20.4s-9.3-20.4-20.6-20.4m0 100.5h-162c-11.3 0-20.5 9.1-20.5 20.4s9.2 20.4 20.5 20.4h162.1c11.3 0 20.5-9.1 20.5-20.4-.1-11.2-9.3-20.4-20.6-20.4m175.2 18.1c-1-11.2-11-19.5-22.2-18.5-46.2 4.1-90.1 54.6-112.7 85.3l-13.3-15.1c-7.5-8.5-20.4-9.3-28.9-1.8s-9.3 20.4-1.8 28.8l30.7 34.8c12 11.9 25.2 9.7 32.7-2.7 13.4-22.1 60.7-85.4 96.9-88.6 11.3-1.1 19.6-11 18.6-22.2"/></svg>