<svg width="25" height="25" viewBox="0 0 25 25" fill="none" xmlns="http://www.w3.org/2000/svg">
<path d="M5.83198 16.5C4.72016 17.1327 4.0542 17.9385 4.0542 18.8158C4.0542 20.8505 7.63592 22.5 12.0542 22.5C16.4725 22.5 20.0542 20.8505 20.0542 18.8158C20.0542 17.9385 19.3882 17.1327 18.2764 16.5" stroke="#292927" stroke-width="1.5" stroke-linecap="round"/>
<path d="M13.0523 7.5H11.0561C8.18616 7.5 6.25121 10.5691 7.38173 13.328C7.53921 13.7124 7.90053 13.9615 8.30032 13.9615H9.0033C9.24025 13.9615 9.44679 14.1302 9.50426 14.3706L10.4093 18.1567C10.598 18.9462 11.2762 19.5 12.0542 19.5C12.8322 19.5 13.5104 18.9462 13.6991 18.1567L14.6041 14.3706C14.6616 14.1302 14.8682 13.9615 15.1051 13.9615H15.8081C16.2079 13.9615 16.5692 13.7124 16.7267 13.328C17.8572 10.5691 15.9222 7.5 13.0523 7.5Z" stroke="#292927" stroke-width="1.5"/>
<path d="M14.5542 5C14.5542 6.38071 13.4349 7.5 12.0542 7.5C10.6735 7.5 9.5542 6.38071 9.5542 5C9.5542 3.61929 10.6735 2.5 12.0542 2.5C13.4349 2.5 14.5542 3.61929 14.5542 5Z" stroke="#292927" stroke-width="1.5"/>
</svg>
