<svg width="38" height="38" viewBox="0 0 38 38" fill="none" xmlns="http://www.w3.org/2000/svg">
<path d="M11.333 21.1921C11.1558 22.3537 11.9481 23.1601 12.9181 23.5619C16.6371 25.1026 21.8124 25.1026 25.5314 23.5619C26.5014 23.1601 27.2937 22.3537 27.1165 21.1921C27.0076 20.4781 26.4691 19.8836 26.0701 19.3031C25.5475 18.5335 25.4956 17.6939 25.4955 16.8007C25.4955 13.3489 22.688 10.5507 19.2248 10.5507C15.7615 10.5507 12.954 13.3489 12.954 16.8007C12.954 17.6939 12.902 18.5335 12.3794 19.3031C11.9805 19.8836 11.4419 20.4781 11.333 21.1921Z" stroke="#181818" stroke-width="1.25" stroke-linecap="round" stroke-linejoin="round"/>
<path d="M15.8911 24.7174C16.2732 26.1551 17.6207 27.2174 19.2244 27.2174C20.8282 27.2174 22.1757 26.1551 22.5578 24.7174" stroke="#181818" stroke-width="1.25" stroke-linecap="round" stroke-linejoin="round"/>
</svg>
