<svg width="24" height="25" viewBox="0 0 24 25" fill="none" xmlns="http://www.w3.org/2000/svg">
<path d="M18 18.6673C13.7297 19.9388 8.39263 19.7542 4.43205 18.1135C3.268 17.6312 2.31727 16.6637 2.52992 15.2696C2.66061 14.4129 3.30684 13.6995 3.78561 13.0029C4.41272 12.0793 4.47503 11.0718 4.47513 10C4.47513 8.62107 4.84851 7.11017 5.5 6" stroke="#7B7B7B" stroke-width="1.5" stroke-linecap="round" stroke-linejoin="round"/>
<path d="M7.5 3.98831C8.75404 3.05352 10.3103 2.5 11.9962 2.5C16.1487 2.5 19.5149 5.85786 19.5149 10C19.5149 11.0718 19.5772 12.0793 20.2038 13.0029C20.6822 13.6995 21.3279 14.4129 21.4584 15.2696C21.5788 16.0596 21.4422 16.4946 20.9887 17" stroke="#7B7B7B" stroke-width="1.5" stroke-linecap="round" stroke-linejoin="round"/>
<path d="M22 22.5L2 2.5" stroke="#7B7B7B" stroke-width="1.5" stroke-linecap="round"/>
<path d="M8 19.5C8.45849 21.2252 10.0755 22.5 12 22.5C13.9245 22.5 15.5415 21.2252 16 19.5" stroke="#7B7B7B" stroke-width="1.5" stroke-linecap="round" stroke-linejoin="round"/>
</svg>
