<svg width="24" height="25" viewBox="0 0 24 25" fill="none" xmlns="http://www.w3.org/2000/svg">
<path d="M15 8C15 8 15.5 8 16 9C16 9 17.5882 6.5 19 6" stroke="#7B7B7B" stroke-width="1.5" stroke-linecap="round" stroke-linejoin="round"/>
<path d="M22 7.5C22 10.2614 19.7614 12.5 17 12.5C14.2386 12.5 12 10.2614 12 7.5C12 4.73858 14.2386 2.5 17 2.5C19.7614 2.5 22 4.73858 22 7.5Z" stroke="#7B7B7B" stroke-width="1.5" stroke-linecap="round"/>
<path d="M22.75 13.7445C22.7493 13.3302 22.4129 12.995 21.9987 12.9958C21.5845 12.9965 21.2493 13.3329 21.25 13.7471L22.75 13.7445ZM9.06582 7.25292C9.48003 7.25057 9.81391 6.91289 9.81157 6.49869C9.80922 6.08448 9.47154 5.7506 9.05734 5.75294L9.06582 7.25292ZM13.5 21.7504H10.5V23.2504H13.5V21.7504ZM10.5 21.7504C8.60311 21.7504 7.24353 21.7493 6.19895 21.6313C5.16816 21.5148 4.54359 21.2931 4.07229 20.9209L3.14263 22.0981C3.926 22.7168 4.86842 22.9905 6.03058 23.1218C7.17896 23.2515 8.63832 23.2504 10.5 23.2504V21.7504ZM1.25 14.5004C1.25 16.2493 1.24857 17.6321 1.38762 18.7226C1.52932 19.8337 1.82681 20.7394 2.49298 21.4866L3.61262 20.4884C3.22599 20.0547 2.99708 19.4856 2.87558 18.5328C2.75143 17.5593 2.75 16.289 2.75 14.5004H1.25ZM4.07229 20.9209C3.90545 20.7892 3.7517 20.6444 3.61262 20.4884L2.49298 21.4866C2.69068 21.7084 2.90811 21.9129 3.14263 22.0981L4.07229 20.9209ZM21.25 14.5004C21.25 16.289 21.2486 17.5593 21.1244 18.5328C21.0029 19.4856 20.774 20.0547 20.3874 20.4884L21.507 21.4866C22.1732 20.7394 22.4707 19.8337 22.6124 18.7226C22.7514 17.6321 22.75 16.2493 22.75 14.5004H21.25ZM13.5 23.2504C15.3617 23.2504 16.821 23.2515 17.9694 23.1218C19.1316 22.9905 20.074 22.7168 20.8574 22.0981L19.9277 20.9209C19.4564 21.2931 18.8318 21.5148 17.801 21.6313C16.7565 21.7493 15.3969 21.7504 13.5 21.7504V23.2504ZM20.3874 20.4884C20.2483 20.6444 20.0946 20.7892 19.9277 20.9209L20.8574 22.0981C21.0919 21.9129 21.3093 21.7084 21.507 21.4866L20.3874 20.4884ZM2.75 14.5004C2.75 12.7118 2.75143 11.4415 2.87558 10.468C2.99708 9.51519 3.22599 8.94606 3.61262 8.5124L2.49298 7.5142C1.82681 8.26141 1.52932 9.16709 1.38762 10.2783C1.24857 11.3687 1.25 12.7515 1.25 14.5004H2.75ZM3.14263 6.90268C2.90811 7.08789 2.69068 7.29245 2.49298 7.5142L3.61262 8.5124C3.7517 8.3564 3.90545 8.21161 4.07229 8.07986L3.14263 6.90268ZM22.75 14.5004C22.75 14.2412 22.7504 13.9875 22.75 13.7445L21.25 13.7471C21.2504 13.9885 21.25 14.2376 21.25 14.5004H22.75ZM9.05734 5.75294C7.64978 5.76091 6.50411 5.79333 5.56558 5.94144C4.61301 6.09178 3.81862 6.36882 3.14263 6.90268L4.07229 8.07986C4.47956 7.75822 5.00124 7.54907 5.79942 7.42311C6.61164 7.29492 7.65139 7.26092 9.06582 7.25292L9.05734 5.75294Z" fill="#7B7B7B"/>
<path d="M10 18.5H11.5" stroke="#7B7B7B" stroke-width="1.5" stroke-miterlimit="10" stroke-linecap="round" stroke-linejoin="round"/>
<path d="M14.5 18.5H18" stroke="#7B7B7B" stroke-width="1.5" stroke-miterlimit="10" stroke-linecap="round" stroke-linejoin="round"/>
<path d="M2.5 11.5H10" stroke="#7B7B7B" stroke-width="1.5" stroke-linecap="round" stroke-linejoin="round"/>
</svg>
