<svg width="25" height="24" viewBox="0 0 25 24" fill="none" xmlns="http://www.w3.org/2000/svg">
<path d="M18.6245 6C19.9246 6.1287 20.7997 6.41956 21.4529 7.07691C22.6245 8.25596 22.6245 10.1536 22.6245 13.9489C22.6245 17.7442 22.6245 19.6419 21.4529 20.8209C20.2814 22 18.3957 22 14.6245 22H10.6245C6.85327 22 4.96766 22 3.79608 20.8209C2.62451 19.6419 2.62451 17.7442 2.62451 13.9489C2.62451 10.1536 2.62451 8.25596 3.79608 7.07691C4.44926 6.41956 5.3244 6.1287 6.62451 6" stroke="#292927" stroke-width="1.5" stroke-linecap="round"/>
<path d="M19.1325 14H19.1235" stroke="#292927" stroke-width="2" stroke-linecap="round" stroke-linejoin="round"/>
<path d="M6.13252 14H6.12354" stroke="#292927" stroke-width="2" stroke-linecap="round" stroke-linejoin="round"/>
<path d="M15.1245 14C15.1245 15.3807 14.0052 16.5 12.6245 16.5C11.2438 16.5 10.1245 15.3807 10.1245 14C10.1245 12.6193 11.2438 11.5 12.6245 11.5C14.0052 11.5 15.1245 12.6193 15.1245 14Z" stroke="#292927" stroke-width="1.5"/>
<path d="M10.1245 4.5C10.616 3.9943 11.9243 2 12.6245 2M12.6245 2C13.3247 2 14.633 3.9943 15.1245 4.5M12.6245 2V8" stroke="#292927" stroke-width="1.5" stroke-linecap="round" stroke-linejoin="round"/>
</svg>
