<svg width="12" height="11" viewBox="0 0 12 11" fill="none" xmlns="http://www.w3.org/2000/svg">
<g clip-path="url(#clip0_346_2939)">
<path d="M6.67447 1.55399L7.41795 3.05326C7.51935 3.26197 7.7897 3.46215 8.01784 3.50048L9.3654 3.72623C10.2272 3.87105 10.43 4.50142 9.80897 5.12328L8.76133 6.17958C8.58389 6.35846 8.48676 6.70346 8.54164 6.95053L8.8416 8.25812C9.07815 9.29313 8.53319 9.69351 7.62497 9.15256L6.36187 8.39868C6.13377 8.26239 5.7578 8.26239 5.52543 8.39868L4.26236 9.15256C3.35834 9.69351 2.80917 9.28886 3.04573 8.25812L3.34567 6.95053C3.40058 6.70346 3.30342 6.35846 3.12599 6.17958L2.07835 5.12328C1.46159 4.50142 1.66013 3.87105 2.52191 3.72623L3.86949 3.50048C4.09338 3.46215 4.36374 3.26197 4.46512 3.05326L5.20861 1.55399C5.61415 0.740463 6.27315 0.740463 6.67447 1.55399Z" fill="#FFE100" stroke="#D3BA01" stroke-width="0.4" stroke-linecap="round" stroke-linejoin="round"/>
</g>
<defs>
<clipPath id="clip0_346_2939">
<rect width="10.1396" height="10.1396" fill="white" transform="translate(0.875 0.098877)"/>
</clipPath>
</defs>
</svg>
