<svg width="25" height="25" viewBox="0 0 25 25" fill="none" xmlns="http://www.w3.org/2000/svg">
<path d="M2.17362 12.3659C2.28905 11.7362 2.79682 11.0924 3.61624 10.5367C5.09167 9.536 6.77679 9.54012 8.46348 9.47767C9.02325 9.45692 10.5263 9.45008 12.1079 9.45367C13.6895 9.45008 15.1926 9.45692 15.7523 9.47767C17.439 9.54012 19.1241 9.536 20.5996 10.5367C21.419 11.0924 21.9268 11.7362 22.0422 12.3659C22.1413 12.9064 22.126 14.7612 22.0117 16.0701C21.9514 16.7601 21.8901 17.096 21.7985 17.2372C21.5222 17.6631 20.7245 18.0213 19.5511 18.2462C18.4499 18.4573 18.6136 18.4528 12.1079 18.4528C5.60217 18.4528 5.76592 18.4573 4.66474 18.2462C3.4913 18.0213 2.69364 17.6631 2.41731 17.2372C2.32575 17.096 2.2644 16.7601 2.20411 16.0701C2.08979 14.7612 2.07451 12.9064 2.17362 12.3659Z" stroke="black" stroke-width="1.5" stroke-linecap="round" stroke-linejoin="round"/>
<path d="M4.60791 9.45276L5.92116 4.94287C6.04178 4.64285 6.27621 4.39227 6.60659 4.27992C9.84957 3.17704 14.3662 3.17704 17.6092 4.27992C17.9396 4.39227 18.174 4.64285 18.2947 4.94287L19.6079 9.45276" stroke="black" stroke-width="1.5" stroke-linecap="round" stroke-linejoin="round"/>
<path d="M2.60791 12.4528L4.10791 12.9528" stroke="black" stroke-width="1.5" stroke-linecap="round" stroke-linejoin="round"/>
<path d="M21.6079 12.4528L20.1079 12.9528" stroke="black" stroke-width="1.5" stroke-linecap="round" stroke-linejoin="round"/>
<path d="M8.10791 17.9528L8.35358 17.3386C8.71892 16.4253 8.90159 15.9686 9.28252 15.7107C9.66344 15.4528 10.1553 15.4528 11.139 15.4528H13.0768C14.0605 15.4528 14.5524 15.4528 14.9333 15.7107C15.3142 15.9686 15.4969 16.4253 15.8622 17.3386L16.1079 17.9528" stroke="black" stroke-width="1.5" stroke-linecap="round" stroke-linejoin="round"/>
<path d="M7.10952 19.0151V19.8172C7.10958 20.6916 7.07129 20.8554 6.80733 21.1107C6.73009 21.1853 6.57311 21.2929 6.45853 21.3497C6.2579 21.449 6.19061 21.4528 4.63559 21.4528C3.04563 21.4528 3.01719 21.4511 2.77219 21.3404C2.63531 21.2785 2.46265 21.1549 2.38849 21.0656C2.12671 20.7506 2.11426 20.6577 2.11182 18.9987L2.11249 15.4528" stroke="black" stroke-width="1.5" stroke-linecap="round"/>
<path d="M17.1064 19.0151V19.8172C17.1063 20.6916 17.1446 20.8554 17.4086 21.1107C17.4858 21.1853 17.6428 21.2929 17.7574 21.3497C17.958 21.449 18.0253 21.4528 19.5803 21.4528C21.1703 21.4528 21.1987 21.4511 21.4437 21.3404C21.5806 21.2785 21.7533 21.1549 21.8274 21.0656C22.0892 20.7506 22.1016 20.6577 22.1041 18.9987L22.1034 15.4528" stroke="black" stroke-width="1.5" stroke-linecap="round"/>
<path d="M20.1079 9.45276L21.6079 8.95276" stroke="black" stroke-width="1.5" stroke-linecap="round" stroke-linejoin="round"/>
<path d="M4.10791 9.45276L2.60791 8.95276" stroke="black" stroke-width="1.5" stroke-linecap="round" stroke-linejoin="round"/>
</svg>
