<svg width="25" height="25" viewBox="0 0 25 25" fill="none" xmlns="http://www.w3.org/2000/svg">
<g clip-path="url(#clip0_492_170)">
<path d="M3.10791 8.95276H15.1079C17.9363 8.95276 19.3505 8.95276 20.2292 9.83144C21.1079 10.7102 21.1079 12.1244 21.1079 14.9528V15.9528C21.1079 18.7812 21.1079 20.1954 20.2292 21.0741C19.3505 21.9528 17.9363 21.9528 15.1079 21.9528H9.10791C6.27948 21.9528 4.86527 21.9528 3.98659 21.0741C3.10791 20.1954 3.10791 18.7812 3.10791 15.9528V8.95276Z" stroke="black" stroke-width="1.5" stroke-linecap="square" stroke-linejoin="round"/>
<path d="M15.1079 8.95109V4.56306C15.1079 3.67372 14.3869 2.95276 13.4976 2.95276C13.2415 2.95276 12.9891 3.01384 12.7613 3.13094L3.87021 7.70203C3.40215 7.94267 3.10791 8.42479 3.10791 8.95109" stroke="black" stroke-width="1.5" stroke-linecap="round" stroke-linejoin="round"/>
</g>
<defs>
<clipPath id="clip0_492_170">
<rect width="24" height="24" fill="white" transform="translate(0.10791 0.452759)"/>
</clipPath>
</defs>
</svg>
