<svg width="25" height="24" viewBox="0 0 25 24" fill="none" xmlns="http://www.w3.org/2000/svg">
<path d="M6.28705 9.68293C8.70073 5.41199 9.90756 3.27651 11.5636 2.72681C12.4746 2.4244 13.456 2.4244 14.367 2.72681C16.0231 3.27651 17.2299 5.41199 19.6436 9.68293C22.0573 13.9538 23.2641 16.0893 22.9021 17.8293C22.7029 18.7866 22.2122 19.6548 21.5003 20.3097C20.2063 21.5 17.7927 21.5 12.9653 21.5C8.13799 21.5 5.72431 21.5 4.4303 20.3097C3.71842 19.6548 3.22773 18.7866 3.02856 17.8293C2.66653 16.0893 3.87337 13.9538 6.28705 9.68293Z" stroke="white" stroke-width="1.5"/>
<path d="M12.9575 16H12.9665" stroke="white" stroke-width="2" stroke-linecap="round" stroke-linejoin="round"/>
<path d="M12.9653 13V9" stroke="white" stroke-width="1.5" stroke-linecap="round" stroke-linejoin="round"/>
</svg>
